<svg width="256" height="256" viewBox="0 0 256 256" fill="none" xmlns="http://www.w3.org/2000/svg">
  <defs>
    <linearGradient id="logoBody" x1="32" y1="8" x2="224" y2="248" gradientUnits="userSpaceOnUse">
      <stop offset="0" stop-color="#FF3EBF"/>
      <stop offset="0.45" stop-color="#00A9FF"/>
      <stop offset="1" stop-color="#FFE949"/>
    </linearGradient>
    <linearGradient id="logoDrop" x1="150" y1="148" x2="236" y2="230" gradientUnits="userSpaceOnUse">
      <stop offset="0" stop-color="#00A9FF"/>
      <stop offset="1" stop-color="#FFE949"/>
    </linearGradient>
    <filter id="softShadow" x="-20%" y="-20%" width="140%" height="140%" color-interpolation-filters="sRGB">
      <feDropShadow dx="0" dy="10" stdDeviation="14" flood-color="#05060A" flood-opacity="0.35"/>
    </filter>
  </defs>
  <g filter="url(#softShadow)">
    <path fill-rule="evenodd" clip-rule="evenodd" d="M70 30C70 19.5066 78.5066 11 89 11H152C193.421 11 227 44.5786 227 86C227 124.526 196.507 156.854 158.083 160.884L124 164.4V214C124 224.493 115.493 233 105 233H89C78.5066 233 70 224.493 70 214V30ZM110 51C99.5066 51 91 59.5066 91 70V118.5C91 128.165 98.835 136 108.5 136H152C173.091 136 190 119.091 190 98C190 76.9086 173.091 60 152 60H110Z" fill="url(#logoBody)"/>
    <path d="M175 148C196.643 148 214 165.357 214 187C214 201.64 205.258 214.592 192.038 220.983C181.047 226.224 167.775 225.428 156.5 218C144.742 210.263 138 197.209 138 183C138 161.357 155.357 144 177 144H175Z" fill="url(#logoDrop)"/>
  </g>
</svg>
