<svg width="720" height="480" viewBox="0 0 720 480" fill="none" xmlns="http://www.w3.org/2000/svg">
  <defs>
    <linearGradient id="bg" x1="60" y1="40" x2="640" y2="440" gradientUnits="userSpaceOnUse">
      <stop stop-color="#0D0D0D"/>
      <stop offset="1" stop-color="#161616"/>
    </linearGradient>
    <linearGradient id="pink" x1="0" y1="0" x2="1" y2="1">
      <stop stop-color="#FF69B4"/>
      <stop offset="1" stop-color="#FF1493"/>
    </linearGradient>
    <linearGradient id="cyan" x1="1" y1="0" x2="0" y2="1">
      <stop stop-color="#00FFFF"/>
      <stop offset="1" stop-color="#1E90FF"/>
    </linearGradient>
    <linearGradient id="gold" x1="0" y1="1" x2="1" y2="0">
      <stop stop-color="#FFD700"/>
      <stop offset="1" stop-color="#FF6B6B"/>
    </linearGradient>
    <filter id="shadow" x="-30" y="-30" width="780" height="540" filterUnits="userSpaceOnUse">
      <feDropShadow dx="0" dy="12" stdDeviation="16" flood-color="#FF69B4" flood-opacity="0.35"/>
    </filter>
  </defs>
  <rect width="720" height="480" rx="32" fill="url(#bg)"/>
  <g filter="url(#shadow)">
    <rect x="70" y="70" width="220" height="150" rx="24" fill="#111217" stroke="url(#pink)" stroke-width="4"/>
    <text x="180" y="135" text-anchor="middle" fill="#FFFFFF" font-family="Inter, 'Segoe UI', system-ui" font-size="20" font-weight="700">Pupito Drop</text>
    <text x="180" y="165" text-anchor="middle" fill="#FFD700" font-family="Inter, 'Segoe UI', system-ui" font-size="14" letter-spacing="0.15em">STICKER / PATCH</text>
    <circle cx="138" cy="175" r="28" fill="url(#cyan)" opacity="0.25"/>
    <circle cx="222" cy="145" r="26" fill="url(#pink)" opacity="0.25"/>
    <path d="M152 168c6-18 28-30 44-20 17 10 10 36-14 45-12 5-28 5-38-6-5-6-3-14 8-19z" fill="url(#gold)"/>
  </g>
  <g filter="url(#shadow)">
    <rect x="310" y="110" width="170" height="210" rx="22" fill="#10151F" stroke="url(#cyan)" stroke-width="4" transform="rotate(-6 310 110)"/>
    <path d="M340 158c0-24 20-44 44-44s44 20 44 44c0 14-7 27-18 35v26c0 11-9 20-20 20h-12c-11 0-20-9-20-20v-26c-11-8-18-21-18-35z" fill="url(#cyan)"/>
    <path d="M362 164c-12 0-22-10-22-22s10-22 22-22c9 0 17 6 20 14 5-10 14-16 24-16 15 0 28 13 28 28 0 9-4 18-12 23-3 3-9 8-9 12" stroke="url(#pink)" stroke-width="7" stroke-linecap="round"/>
    <text x="395" y="300" text-anchor="middle" fill="#FFD700" font-family="Inter, 'Segoe UI', system-ui" font-size="13" letter-spacing="0.2em">PUPITO PACK</text>
  </g>
  <g filter="url(#shadow)">
    <rect x="520" y="70" width="130" height="130" rx="24" fill="#0F111A" stroke="url(#gold)" stroke-width="4" transform="rotate(8 520 70)"/>
    <text x="585" y="135" text-anchor="middle" fill="#FFFFFF" font-family="Inter, 'Segoe UI', system-ui" font-size="16" font-weight="700">Neon Paw</text>
    <path d="M550 130c0-10 9-18 20-18s20 8 20 18c0 6-3 11-8 15v11c0 5-5 10-12 10h-4c-7 0-12-5-12-10v-11c-5-4-8-9-8-15z" fill="url(#pink)"/>
  </g>
  <g filter="url(#shadow)">
    <rect x="170" y="270" width="180" height="120" rx="20" fill="#0F161D" stroke="url(#cyan)" stroke-width="4" transform="rotate(5 170 270)"/>
    <text x="260" y="330" text-anchor="middle" fill="#00FFFF" font-family="Inter, 'Segoe UI', system-ui" font-size="18" font-weight="700">Pup Squad</text>
    <text x="260" y="352" text-anchor="middle" fill="#FFD700" font-family="Inter, 'Segoe UI', system-ui" font-size="13" letter-spacing="0.08em">CITY BADGE</text>
    <path d="M212 326c8 12 26 22 44 22h18c18 0 35-10 44-22" stroke="#FF69B4" stroke-width="8" stroke-linecap="round"/>
    <circle cx="232" cy="318" r="10" fill="#1E90FF"/>
    <circle cx="288" cy="318" r="10" fill="#1E90FF"/>
  </g>
  <g filter="url(#shadow)">
    <rect x="430" y="310" width="210" height="110" rx="26" fill="#0F1217" stroke="url(#pink)" stroke-width="4" transform="rotate(-4 430 310)"/>
    <text x="536" y="362" text-anchor="middle" fill="#FFFFFF" font-family="Inter, 'Segoe UI', system-ui" font-size="18" font-weight="800">Arcade Aura</text>
    <text x="536" y="384" text-anchor="middle" fill="#00FFFF" font-family="Inter, 'Segoe UI', system-ui" font-size="13" letter-spacing="0.18em">PUPITO ART PRINT</text>
    <path d="M470 366c10-14 34-26 58-18 27 9 34 32 60 32 18 0 28-6 36-14" stroke="#FFD700" stroke-width="7" stroke-linecap="round"/>
  </g>
</svg>
